HIERARCHY
ROOT hip
{
	OFFSET 0.000000 0.000000 0.000000 
	CHANNELS 6 Xposition Yposition Zposition Zrotation Xrotation Yrotation
	JOINT abdomen
	{
		OFFSET 0.000000 3.402643 0.000000 
		CHANNELS 3 Zrotation Xrotation Yrotation
		JOINT chest
		{
			OFFSET 0.000000 8.438565 -0.680529 
			CHANNELS 3 Zrotation Xrotation Yrotation
			JOINT neck
			{
				OFFSET 0.000000 10.207942 -0.272212 
				CHANNELS 3 Zrotation Xrotation Yrotation
				JOINT head
				{
					OFFSET 0.000000 3.130431 0.000000 
					CHANNELS 3 Zrotation Xrotation Yrotation
					End Site
					{
						OFFSET 0.000000 3.130435 0.000000 
					}
				}
			}
			JOINT lCollar
			{
				OFFSET 3.470700 6.669187 -0.816635 
				CHANNELS 3 Zrotation Xrotation Yrotation
				JOINT lShldr
				{
					OFFSET 3.198488 0.000000 0.000000 
					CHANNELS 3 Zrotation Xrotation Yrotation
					JOINT lForeArm
					{
						OFFSET 10.139888 0.000000 0.000000 
						CHANNELS 3 Zrotation Xrotation Yrotation
						JOINT lHand
						{
							OFFSET 8.370511 0.000000 0.000000 
							CHANNELS 3 Zrotation Xrotation Yrotation
							End Site
							{
								OFFSET 4.083176 0.000000 0.000000 
							}
						}
					}
				}
			}
			JOINT rCollar
			{
				OFFSET -3.470700 6.669187 -0.816635 
				CHANNELS 3 Zrotation Xrotation Yrotation
				JOINT rShldr
				{
					OFFSET -3.198488 0.000000 0.000000 
					CHANNELS 3 Zrotation Xrotation Yrotation
					JOINT rForeArm
					{
						OFFSET -10.139888 0.000000 0.000000 
						CHANNELS 3 Zrotation Xrotation Yrotation
						JOINT rHand
						{
							OFFSET -8.370511 0.000000 0.000000 
							CHANNELS 3 Zrotation Xrotation Yrotation
							End Site
							{
								OFFSET -4.083176 0.000000 0.000000 
							}
						}
					}
				}
			}
		}
	}
	JOINT lThigh
	{
		OFFSET 5.308129 -1.633274 1.361059 
		CHANNELS 3 Zrotation Xrotation Yrotation
		JOINT lShin
		{
			OFFSET -2.041588 -20.007561 0.000000 
			CHANNELS 3 Zrotation Xrotation Yrotation
			JOINT lFoot
			{
				OFFSET 0.000000 -19.190928 -1.224953 
				CHANNELS 3 Zrotation Xrotation Yrotation
				End Site
				{
					OFFSET 0.000000 -2.449906 4.627600 
				}
			}
		}
	}
	JOINT rThigh
	{
		OFFSET -5.308129 -1.633274 1.361059 
		CHANNELS 3 Zrotation Xrotation Yrotation
		JOINT rShin
		{
			OFFSET 2.041588 -20.007561 0.000000 
			CHANNELS 3 Zrotation Xrotation Yrotation
			JOINT rFoot
			{
				OFFSET 0.000000 -19.190928 -1.224953 
				CHANNELS 3 Zrotation Xrotation Yrotation
				End Site
				{
					OFFSET 0.000000 -2.449906 4.627600 
				}
			}
		}
	}
}
MOTION
Frames: 13
Frame Time: 0.016667
0.106745 47.879078 3.821310 -7.812500 1.083990 56.942101 2.615230 14.325300 -2.524730 -1.692800 -21.550200 -3.821770 9.622910 31.529600 -12.019100 5.950530 20.167101 -5.114730 -1.998780 -0.069785 1.998780 -78.673203 -4.441180 3.377160 -0.980635 -2.172770 -39.882099 -0.087708 7.451360 0.101528 1.998780 -0.069785 -1.998780 78.269997 4.681340 -19.145300 0.559211 1.250250 54.977100 0.074522 34.908001 -0.032376 5.217520 -16.641399 -7.979210 3.170640 53.350201 0.960123 6.231610 -36.825699 15.476400 7.178950 -22.078501 -3.346560 -2.314090 32.254101 -1.500590 0.335431 -23.969400 5.747530 
0.212414 48.058277 5.339010 -7.539070 1.083980 54.130901 2.111910 14.156600 -1.947080 -1.368220 -21.470200 -2.896100 9.049950 31.411800 -11.623900 5.770180 20.080200 -4.974960 -1.998780 -0.069785 1.998780 -78.069099 -4.831850 5.632080 -1.030320 -2.138510 -41.601700 -0.087876 6.338060 0.103366 1.998780 -0.069785 -1.998780 77.173599 4.399780 -17.285500 0.534037 1.227660 53.083500 0.074232 35.084000 -0.031850 5.054800 -17.785299 -7.950770 3.024650 57.116699 1.145040 7.108800 -32.650700 17.840099 7.400650 -20.425301 -2.161530 -2.321060 29.561199 -1.395130 0.772131 -22.421499 6.911640 
0.307077 48.205479 6.852610 -7.373050 1.132810 51.523399 1.689150 13.936800 -1.427010 -1.050350 -21.452900 -2.045870 8.471680 31.327700 -11.282900 5.559910 19.993200 -4.841810 -1.998780 -0.069785 1.998780 -77.573997 -5.048050 7.771330 -1.075670 -2.105250 -43.203999 -0.097859 5.371290 0.115612 1.998780 -0.069785 -1.998780 76.136101 4.031520 -15.435100 0.510294 1.207680 51.346001 0.074152 35.132999 -0.031703 4.943020 -19.061399 -8.396070 2.790550 60.364799 1.417710 6.723200 -27.257200 18.845501 7.531140 -19.194599 -0.945859 -2.324140 27.457701 -1.330040 1.148160 -21.124100 7.958880 
0.385626 48.306580 8.361070 -7.265630 1.298830 49.129700 1.417190 13.705000 -0.999150 -0.746130 -21.459999 -1.290590 8.043880 31.249901 -11.026300 5.409620 19.906099 -4.753150 -1.998780 -0.069785 1.998780 -77.202202 -5.170710 9.723950 -1.116050 -2.073960 -44.659599 -0.087642 4.433780 0.108159 1.998780 -0.069785 -1.998780 75.178299 3.557110 -13.575700 0.488305 1.190230 49.774399 0.074136 35.143002 -0.031674 4.773830 -20.404400 -9.336100 2.591750 62.902401 1.637840 4.928320 -21.986200 17.094101 7.553000 -18.551399 0.106124 -2.310290 26.121901 -1.298840 1.343880 -19.883200 8.653800 
0.444470 48.358479 9.859320 -7.207030 1.630860 46.942501 1.305460 13.471400 -0.666919 -0.472610 -21.483101 -0.650661 7.789320 31.138000 -10.838900 5.339310 19.828300 -4.689170 -1.998780 -0.069785 1.998780 -76.986603 -5.280770 11.392000 -1.149310 -2.046910 -45.880798 -0.088018 3.554880 0.109111 1.998780 -0.069785 -1.998780 74.346802 2.976240 -11.659000 0.468239 1.175150 48.368801 0.073907 35.278999 -0.031263 4.532680 -21.607100 -10.712000 2.412850 64.389397 1.841780 2.791630 -17.900900 13.166700 7.480760 -18.672501 0.939986 -2.336650 26.049200 -1.248280 1.335730 -18.912800 8.843990 
0.486941 48.366379 11.341200 -7.187500 2.070320 44.931198 1.253620 13.217900 -0.394923 -0.232170 -21.513599 -0.104956 7.699520 30.953800 -10.733900 5.318900 19.740499 -4.658200 -1.998780 -0.069785 1.998780 -76.840401 -5.372410 12.708700 -1.173410 -2.026560 -46.779499 -0.087630 2.812700 0.111077 1.998780 -0.069785 -1.998780 73.699097 2.201050 -9.724230 0.449954 1.162050 47.109600 0.073430 35.563000 -0.030407 4.233380 -22.725500 -12.409600 2.343810 64.833199 1.926950 1.119610 -15.144300 8.807200 7.411060 -19.463499 1.720610 -2.327440 26.877199 -1.306760 1.200540 -18.028099 8.604820 
0.518405 48.334179 12.809500 -7.138670 2.529300 43.055500 1.201710 12.935100 -0.142455 -0.061333 -21.513201 0.409313 7.676540 30.688400 -10.723300 5.298360 19.623400 -4.646710 -1.998780 -0.069785 1.998780 -76.670502 -5.421060 13.622100 -1.188440 -2.013540 -47.346100 -0.087489 2.217000 0.112045 1.998780 -0.069785 -1.998780 73.313698 1.220590 -7.821790 0.434282 1.151300 46.045601 0.072945 35.846001 -0.029545 3.922710 -23.590599 -14.270000 2.345630 64.185997 1.910990 0.233537 -13.376600 5.766620 7.387080 -20.766199 2.505980 -2.363830 28.593901 -1.326910 1.004930 -17.531601 8.053300 
0.541948 48.253578 14.268400 -6.982420 2.978520 41.346802 1.080460 12.633200 0.115052 0.022543 -21.433399 0.870672 7.656400 30.299900 -10.771100 5.247640 19.457500 -4.642660 -1.998780 -0.069785 1.998780 -76.405197 -5.409950 14.151300 -1.196160 -2.006740 -47.639198 -0.088409 1.670100 0.113089 1.998780 -0.069785 -1.998780 73.231796 0.083839 -6.001020 0.422071 1.143220 45.225700 0.072692 35.992001 -0.029096 3.562490 -24.232300 -16.231800 2.459830 62.575199 1.795110 -0.105259 -12.471600 4.285160 7.333690 -22.174500 3.464450 -2.377400 30.616800 -1.371250 0.854207 -17.273600 7.552300 
0.560374 48.108078 15.719300 -6.669930 3.388670 39.803902 0.870952 12.390300 0.355135 -0.048087 -21.245701 1.225810 7.604580 29.764700 -10.823300 5.156750 19.233299 -4.636400 -1.998780 -0.069785 1.998780 -76.018501 -5.378600 14.288200 -1.198470 -2.004690 -47.727100 -0.088039 1.074430 0.124087 1.998780 -0.069785 -1.998780 73.475502 -1.080080 -4.211750 0.413866 1.137930 44.679001 0.072725 35.973000 -0.029156 3.220580 -24.375000 -18.237301 2.616580 59.735199 1.590960 -0.242955 -12.310600 3.639380 7.180390 -23.614500 4.547500 -2.386240 32.934502 -1.435100 0.859978 -17.207001 7.434610 
0.568036 47.882080 17.168900 -6.201170 3.808590 38.426998 0.662580 12.264300 0.536384 -0.237978 -20.941099 1.463850 7.504000 29.070299 -10.843300 5.055620 18.940701 -4.608920 -1.998780 -0.069785 1.998780 -75.574402 -5.356220 14.003400 -1.196420 -2.006520 -47.648899 -0.087711 0.468959 0.125102 1.998780 -0.069785 -1.998780 73.980301 -2.150760 -2.442720 0.409893 1.135410 44.415600 0.073062 35.777000 -0.029754 2.884450 -24.161800 -20.193800 2.833310 55.988899 1.332740 -0.393104 -12.680400 3.019350 6.883720 -25.202801 5.690250 -2.418590 35.661301 -1.472630 1.050470 -17.477600 7.798080 
0.565480 47.566978 18.628201 -5.615240 4.257820 37.206100 0.711805 12.215300 0.548185 -0.436994 -20.569901 1.481140 7.252940 28.330099 -10.639400 4.984460 18.638300 -4.534880 -1.998780 -0.069785 1.998780 -75.318901 -5.567940 13.409400 -1.190760 -2.011500 -47.433998 -0.087628 -0.009549 0.126142 1.998780 -0.069785 -1.998780 74.419098 -2.734020 -0.711815 0.410336 1.135680 44.444801 0.073972 35.240002 -0.031381 2.669990 -23.593700 -22.018999 2.993930 51.241901 1.131280 -0.551329 -12.905900 2.247420 6.458280 -26.882601 6.861700 -2.425770 38.575298 -1.521410 1.376050 -17.953800 8.496440 
0.555501 47.158978 20.106001 -4.990230 4.726560 36.083801 1.087330 12.193700 0.375867 -0.563794 -20.219400 1.342440 6.853770 27.681900 -10.216600 4.943430 18.374800 -4.404550 -1.998780 -0.069785 1.998780 -75.288597 -5.994750 12.573900 -1.181980 -2.019170 -47.101898 -0.086965 -0.292756 0.127127 1.998780 -0.069785 -1.998780 74.650703 -2.739640 0.872005 0.414895 1.138580 44.747398 0.075658 34.205002 -0.034458 2.680110 -22.773899 -23.482599 3.154410 45.782700 0.898061 -0.731140 -12.584200 1.367260 5.992680 -28.819500 7.970760 -2.421820 41.961102 -1.606840 1.844020 -18.726999 9.513510 
0.546811 46.651978 21.598499 -4.394530 5.253910 34.980202 1.670010 12.140000 0.100765 -0.625343 -19.937799 1.111410 6.344830 27.230700 -9.668980 4.902860 18.209000 -4.236120 -1.998780 -0.069785 1.998780 -75.415298 -6.475620 11.502400 -1.170800 -2.028790 -46.681801 -0.087693 -0.419715 0.127164 1.998780 -0.069785 -1.998780 74.704102 -2.227150 2.189660 0.423238 1.143980 45.303699 0.077867 32.759998 -0.038633 2.920010 -21.790600 -24.500000 3.252990 39.929600 0.738380 -0.718807 -11.498700 0.751936 5.493560 -30.982401 8.948090 -2.363050 45.555199 -1.745370 2.440820 -19.408300 10.846300 
